<?xml version="1.0" standalone="no"?>
<!DOCTYPE svg PUBLIC "-//W3C//DTD SVG 20010904//EN"
 "http://www.w3.org/TR/2001/REC-SVG-20010904/DTD/svg10.dtd">
<svg version="1.0" xmlns="http://www.w3.org/2000/svg"
 width="219.000000pt" height="230.000000pt" viewBox="0 0 219.000000 230.000000"
 preserveAspectRatio="xMidYMid meet">

<g transform="translate(0.000000,230.000000) scale(0.100000,-0.100000)"
fill="#000000" stroke="none">
<path d="M979 2190 c-346 -41 -654 -263 -803 -581 -63 -133 -87 -237 -93 -394
-6 -161 12 -271 66 -410 106 -275 353 -508 633 -598 120 -39 210 -50 374 -45
166 5 251 26 389 96 282 141 483 403 547 711 26 124 21 334 -10 453 -98 366
-378 649 -740 743 -64 17 -209 35 -262 34 -19 -1 -65 -5 -101 -9z m365 -59
c221 -59 436 -212 563 -401 198 -294 220 -684 57 -1000 -43 -84 -166 -249
-192 -258 -8 -2 -12 9 -12 38 0 62 -26 155 -68 240 -52 108 -159 213 -272 268
-86 42 -179 71 -235 73 -29 1 -28 1 11 14 110 35 189 100 233 194 22 48 26 69
26 151 0 85 -3 101 -29 153 -36 70 -99 130 -174 165 -48 23 -71 27 -142 27
-76 0 -93 -4 -152 -33 -77 -38 -130 -92 -167 -171 -35 -76 -37 -211 -4 -283
44 -97 153 -186 249 -204 39 -7 39 -7 -41 -25 -207 -45 -360 -165 -455 -357
-37 -75 -51 -130 -59 -226 l-6 -78 -47 42 c-70 61 -166 193 -214 295 -274 576
55 1249 676 1386 116 26 339 21 454 -10z"/>
</g>
</svg>
