<?xml version="1.0" standalone="no"?>
<!DOCTYPE svg PUBLIC "-//W3C//DTD SVG 20010904//EN"
 "http://www.w3.org/TR/2001/REC-SVG-20010904/DTD/svg10.dtd">
<svg version="1.0" xmlns="http://www.w3.org/2000/svg"
 width="768.000000pt" height="263.000000pt" viewBox="0 0 768.000000 263.000000"
 preserveAspectRatio="xMidYMid meet">

<g transform="translate(0.000000,263.000000) scale(0.100000,-0.100000)"
fill="#000000" stroke="none">
<path d="M6690 1625 c-129 -42 -173 -193 -83 -287 24 -25 56 -40 177 -83 82
-30 110 -80 67 -119 -41 -37 -131 -12 -131 36 0 16 -9 18 -80 18 -92 0 -96 -5
-57 -80 79 -158 381 -144 432 19 13 43 7 111 -14 145 -22 35 -86 74 -166 100
-82 26 -115 51 -115 85 0 39 24 61 65 61 27 0 40 -7 57 -30 21 -29 25 -30 99
-30 l78 0 -9 31 c-16 56 -45 93 -93 117 -59 31 -162 38 -227 17z"/>
<path d="M2500 1315 l0 -315 75 0 75 0 0 193 1 192 72 -193 72 -193 58 3 59 3
67 182 c36 101 69 183 74 183 4 0 7 -83 7 -185 l0 -185 70 0 70 0 0 315 0 316
-87 -3 -87 -3 -84 -213 c-46 -116 -87 -210 -91 -208 -4 3 -45 99 -91 215 l-84
211 -88 0 -88 0 0 -315z"/>
<path d="M3340 1315 l0 -315 188 2 187 3 3 57 3 57 -118 3 -118 3 0 70 0 70
103 3 102 3 0 54 0 54 -102 3 -103 3 -3 63 -3 62 121 0 120 0 0 60 0 60 -190
0 -190 0 0 -315z"/>
<path d="M3852 1403 l3 -228 30 -55 c42 -77 100 -111 199 -118 95 -6 164 16
217 69 60 60 69 106 69 351 l0 208 -75 0 -75 0 0 -214 c0 -214 0 -215 -25
-244 -30 -36 -83 -47 -130 -28 -62 26 -65 37 -65 273 l0 213 -76 0 -76 0 4
-227z"/>
<path d="M4700 1315 l0 -315 190 0 190 0 0 60 0 60 -115 0 -115 0 0 255 0 255
-75 0 -75 0 0 -315z"/>
<path d="M5315 1328 c-59 -167 -110 -309 -113 -316 -3 -10 13 -12 73 -10 l78
3 20 58 19 58 116 -3 116 -3 21 -55 21 -55 77 -3 77 -3 -46 128 c-25 70 -76
212 -112 315 l-67 188 -86 0 -86 0 -108 -302z m238 10 l36 -108 -81 0 c-60 0
-79 3 -75 13 2 6 19 58 38 114 18 57 36 99 40 95 3 -4 22 -55 42 -114z"/>
<path d="M5950 1316 l0 -316 144 0 c213 0 269 15 320 84 16 20 21 42 21 86 0
65 -18 99 -74 137 l-32 22 30 16 c64 32 85 138 43 207 -39 63 -73 73 -274 76
l-178 4 0 -316z m310 167 c15 -19 19 -35 15 -53 -11 -45 -30 -55 -108 -55
l-72 0 -3 68 -3 67 75 0 c69 0 76 -2 96 -27z m9 -237 c31 -28 28 -79 -6 -106
-22 -17 -38 -20 -97 -18 l-71 3 -3 59 c-5 88 -4 89 82 84 55 -2 80 -8 95 -22z"/>
</g>
</svg>
